<?xml version="1.0" encoding="UTF-8" standalone="no"?>
<!-- Created with Inkscape (http://www.inkscape.org/) -->

<svg
   xmlns:dc="http://purl.org/dc/elements/1.1/"
   xmlns:cc="http://creativecommons.org/ns#"
   xmlns:rdf="http://www.w3.org/1999/02/22-rdf-syntax-ns#"
   xmlns:svg="http://www.w3.org/2000/svg"
   xmlns="http://www.w3.org/2000/svg"
   xmlns:sodipodi="http://sodipodi.sourceforge.net/DTD/sodipodi-0.dtd"
   xmlns:inkscape="http://www.inkscape.org/namespaces/inkscape"
   width="1280pt"
   height="640pt"
   viewBox="0 0 451.55556 225.77779"
   version="1.1"
   id="svg8"
   inkscape:version="0.92.3 (2405546, 2018-03-11)"
   sodipodi:docname="NPU_Helper_banner.svg"
   style="enable-background:new"
   inkscape:export-filename="D:\AndroidProjects\NPU_Helper_banner.png"
   inkscape:export-xdpi="72"
   inkscape:export-ydpi="72">
  <defs
     id="defs2">
    <style
       id="style830"
       type="text/css">html, * { user-select: text !important; }
</style>
  </defs>
  <sodipodi:namedview
     id="base"
     pagecolor="#ffffff"
     bordercolor="#666666"
     borderopacity="1.0"
     inkscape:pageopacity="0.0"
     inkscape:pageshadow="2"
     inkscape:zoom="0.39311978"
     inkscape:cx="798.50726"
     inkscape:cy="344.05976"
     inkscape:document-units="pt"
     inkscape:current-layer="layer5"
     showgrid="false"
     showguides="false"
     inkscape:window-width="1600"
     inkscape:window-height="837"
     inkscape:window-x="1672"
     inkscape:window-y="-8"
     inkscape:window-maximized="1"
     fit-margin-top="0"
     fit-margin-left="0"
     fit-margin-right="0"
     fit-margin-bottom="0"
     units="pt" />
  <metadata
     id="metadata5">
    <rdf:RDF>
      <cc:Work
         rdf:about="">
        <dc:format>image/svg+xml</dc:format>
        <dc:type
           rdf:resource="http://purl.org/dc/dcmitype/StillImage" />
        <dc:title />
      </cc:Work>
    </rdf:RDF>
  </metadata>
  <g
     inkscape:label="background"
     inkscape:groupmode="layer"
     id="layer1"
     transform="translate(52.916666,-124.13888)" />
  <g
     inkscape:groupmode="layer"
     id="layer3"
     inkscape:label="otherCircle"
     transform="translate(52.916666,-124.13888)">
    <g
       inkscape:groupmode="layer"
       id="layer5"
       inkscape:label="red"
       style="display:inline">
      <circle
         style="fill:#ff5722;fill-opacity:1;stroke:none;stroke-width:0;stroke-linecap:round;stroke-linejoin:round;stroke-miterlimit:4;stroke-dasharray:none;stroke-dashoffset:0;stroke-opacity:1;paint-order:stroke fill markers"
         id="circle1186"
         cx="421.7619"
         cy="247.5578"
         r="52.916668" />
      <circle
         r="52.916668"
         cy="181.46135"
         cx="398.5498"
         id="circle1188"
         style="fill:#16a085;fill-opacity:1;stroke:none;stroke-width:0;stroke-linecap:round;stroke-linejoin:round;stroke-miterlimit:4;stroke-dasharray:none;stroke-dashoffset:0;stroke-opacity:1;paint-order:stroke fill markers" />
      <g
         id="g1176"
         transform="matrix(0.60000062,0,0,0.60000062,151.69449,41.188672)">
        <circle
           r="35.277779"
           cy="261.72223"
           cx="35.277779"
           id="path877"
           style="fill:#ecf0f1;fill-opacity:1;stroke:none;stroke-width:0;stroke-linecap:round;stroke-linejoin:round;stroke-miterlimit:4;stroke-dasharray:none;stroke-dashoffset:0;stroke-opacity:1;paint-order:stroke fill markers;enable-background:new" />
        <circle
           transform="rotate(135)"
           r="35.277779"
           cy="-262.92737"
           cx="157.09406"
           id="path877-7-7-6-5"
           style="fill:#8e44ad;fill-opacity:1;stroke:none;stroke-width:0;stroke-linecap:round;stroke-linejoin:round;stroke-miterlimit:4;stroke-dasharray:none;stroke-dashoffset:0;stroke-opacity:1;paint-order:stroke fill markers" />
        <circle
           style="fill:#2980b9;fill-opacity:1;stroke:none;stroke-width:0;stroke-linecap:round;stroke-linejoin:round;stroke-miterlimit:4;stroke-dasharray:none;stroke-dashoffset:0;stroke-opacity:1;paint-order:stroke fill markers"
           id="circle916"
           cx="314.63889"
           cy="-35.277779"
           r="35.277779"
           transform="rotate(90)" />
        <circle
           style="fill:#27ae60;fill-opacity:1;stroke:none;stroke-width:0;stroke-linecap:round;stroke-linejoin:round;stroke-miterlimit:4;stroke-dasharray:none;stroke-dashoffset:0;stroke-opacity:1;paint-order:stroke fill markers"
           id="circle916-9-8"
           cx="210.01071"
           cy="-210.01071"
           r="35.277779"
           transform="rotate(135)" />
        <circle
           style="fill:#16a085;fill-opacity:1;stroke:none;stroke-width:0;stroke-linecap:round;stroke-linejoin:round;stroke-miterlimit:4;stroke-dasharray:none;stroke-dashoffset:0;stroke-opacity:1;paint-order:stroke fill markers"
           id="circle912"
           cx="261.72223"
           cy="17.638887"
           r="35.277779"
           transform="rotate(90)" />
        <circle
           style="fill:#f1c40f;fill-opacity:1;stroke:none;stroke-width:0;stroke-linecap:round;stroke-linejoin:round;stroke-miterlimit:4;stroke-dasharray:none;stroke-dashoffset:0;stroke-opacity:1;paint-order:stroke fill markers"
           id="circle912-3-2"
           cx="157.09406"
           cy="-157.09406"
           r="35.277779"
           transform="rotate(135)" />
        <circle
           transform="rotate(90)"
           r="35.277779"
           cy="-35.277779"
           cx="208.80556"
           id="circle914"
           style="fill:#f39c12;fill-opacity:1;stroke:none;stroke-width:0;stroke-linecap:round;stroke-linejoin:round;stroke-miterlimit:4;stroke-dasharray:none;stroke-dashoffset:0;stroke-opacity:1;paint-order:stroke fill markers" />
        <circle
           transform="rotate(135)"
           r="35.277779"
           cy="-210.01071"
           cx="104.17739"
           id="circle914-3-1"
           style="fill:#e67e22;fill-opacity:1;stroke:none;stroke-width:0;stroke-linecap:round;stroke-linejoin:round;stroke-miterlimit:4;stroke-dasharray:none;stroke-dashoffset:0;stroke-opacity:1;paint-order:stroke fill markers" />
        <path
           inkscape:connector-curvature="0"
           id="path877-7-7"
           transform="scale(0.26458333)"
           d="M 333.33398,855.85352 A 133.33334,133.33334 0 0 0 200,989.18555 a 133.33334,133.33334 0 0 0 2.87695,26.84175 133.33334,133.33334 0 0 1 174.2461,12.211 133.33334,133.33334 0 0 1 36.22461,67.4414 133.33334,133.33334 0 0 0 53.31836,-106.49415 133.33334,133.33334 0 0 0 -133.33204,-133.33203 z"
           style="fill:#e74c3c;fill-opacity:1;stroke:none;stroke-width:0;stroke-linecap:round;stroke-linejoin:round;stroke-miterlimit:4;stroke-dasharray:none;stroke-dashoffset:0;stroke-opacity:1;paint-order:stroke fill markers" />
      </g>
      <g
         aria-label="瓜大助手"
         style="font-style:normal;font-weight:normal;font-size:3.52777791px;line-height:1.25;font-family:sans-serif;letter-spacing:0px;word-spacing:0px;writing-mode:lr-tb;fill:#2c3e50;fill-opacity:1;stroke:none;stroke-width:0.26458335"
         id="text1180">
        <path
           d="m 143.76332,287.15188 q 1.5875,3.39548 3.02066,6.85712 -0.33073,0.13229 -1.7198,0.7717 -0.4079,-1.16858 -0.92604,-2.45842 -1.87413,0.6835 -3.77031,1.48828 -0.59531,0.28663 -1.14653,0.6835 l -1.16857,-1.5875 q 0.85989,-0.7276 0.85989,-1.71979 v -14.89384 q -1.94028,0.1323 -4.01285,0.25356 0,8.7974 -0.70555,12.19289 -0.66146,3.41753 -3.30729,6.41614 -0.61737,-0.66146 -1.32292,-1.32291 2.4474,-2.73403 2.99861,-5.90903 0.59531,-2.95452 0.55122,-12.96459 7.45243,-0.22048 16.58055,-1.27882 l 0.28663,1.7198 q -1.53237,0.15434 -3.20807,0.29765 -0.011,12.93151 5.10426,17.67197 -1.01424,0.7717 -1.74184,1.41111 -5.12631,-6.04132 -5.08221,-18.93976 -2.09462,0.16536 -4.3987,0.33073 v 15.65451 q 1.45521,-0.51814 2.8553,-1.03628 -0.59532,-1.42214 -1.3119,-2.97656 z"
           style="font-size:22.57777977px;fill:#2c3e50;fill-opacity:1;stroke-width:0.26458335"
           id="path1216" />
        <path
           d="m 152.36228,293.23729 q 9.09505,-4.04592 9.81163,-12.14878 h -9.41476 v -1.71979 h 9.49193 q 0.0551,-2.96554 0.0551,-5.97518 h 1.91823 q 0,2.96554 -0.0551,5.97518 h 9.77856 v 1.71979 h -9.81164 q 1.56546,8.80842 10.27466,11.61962 -1.12448,1.08038 -1.6757,1.78593 -7.17682,-2.88836 -9.38168,-10.28567 -1.71979,6.69175 -9.62422,10.72665 -0.44097,-0.59532 -1.36701,-1.69775 z"
           style="font-size:22.57777977px;fill:#2c3e50;fill-opacity:1;stroke-width:0.26458335"
           id="path1218" />
        <path
           d="m 185.76592,278.0458 h 2.53559 q 0.0441,-2.25998 0.0661,-4.56406 h 1.76389 q -0.0221,2.24896 -0.0661,4.56406 h 5.6224 q -0.30868,10.67153 -0.44097,13.07483 -0.17639,3.39548 -3.04271,3.41753 -0.72761,0 -2.97656,-0.0882 -0.15434,-1.01424 -0.35278,-1.98438 1.76389,0.24254 3.0868,0.24254 1.38907,0 1.54341,-1.83004 0.15434,-2.75607 0.39687,-11.22274 h -3.86953 q -0.0772,5.5783 -0.71658,8.18003 -1.03628,4.32153 -4.38767,7.2099 -0.44098,-0.79375 -1.10243,-1.60955 1.24574,-0.98116 2.11666,-2.23793 -4.83967,0.6835 -10.69357,1.57647 l -0.26459,-1.76389 q 0.91502,-0.0992 1.85209,-0.19843 v -16.0073 h 7.73906 v 15.02613 q 0.7717,-0.11024 1.5434,-0.23151 -0.022,0.44098 -0.0772,1.46624 1.06936,-1.59853 1.55443,-3.627 0.61736,-2.39228 0.67248,-7.78316 h -2.50252 z m -2.84427,12.00547 v -3.5388 h -4.43177 v 4.11206 q 2.19384,-0.26458 4.43177,-0.57326 z m 0,-13.76936 h -4.43177 v 3.66007 h 4.43177 z m -4.43177,8.77535 h 4.43177 v -3.66007 h -4.43177 z"
           style="font-size:22.57777977px;fill:#2c3e50;fill-opacity:1;stroke-width:0.26458335"
           id="path1220" />
        <path
           d="m 197.69422,286.07149 h 9.94393 v -3.9467 h -8.40053 v -1.74184 h 8.40053 v -3.97977 q -4.17822,0.16536 -8.48872,0.27561 -0.13229,-0.92605 -0.33073,-1.80799 11.26684,-0.17639 18.2783,-0.79375 l 0.28663,1.80799 q -3.88055,0.24253 -7.8934,0.42994 v 4.06797 h 8.00365 v 1.74184 h -8.00365 v 3.9467 h 9.89983 v 1.74185 h -9.89983 v 4.05694 q 0,2.67891 -2.73403,2.71198 -1.38906,0 -3.85851,-0.0221 -0.11024,-1.01424 -0.35277,-2.00642 2.46944,0.17639 3.72621,0.17639 1.36702,0 1.36702,-1.47726 v -3.43958 h -9.94393 z"
           style="font-size:22.57777977px;fill:#2c3e50;fill-opacity:1;stroke-width:0.26458335"
           id="path1222" />
      </g>
      <circle
         style="fill:#2c3e50;fill-opacity:1;stroke:none;stroke-width:0;stroke-linecap:round;stroke-linejoin:round;stroke-miterlimit:4;stroke-dasharray:none;stroke-dashoffset:0;stroke-opacity:1;paint-order:stroke fill markers"
         id="path1182"
         cx="369.7493"
         cy="313.9093"
         r="70.555557" />
      <circle
         r="52.916668"
         cy="351.7392"
         cx="322.49686"
         id="circle1184"
         style="fill:#2980b9;fill-opacity:1;stroke:none;stroke-width:0;stroke-linecap:round;stroke-linejoin:round;stroke-miterlimit:4;stroke-dasharray:none;stroke-dashoffset:0;stroke-opacity:1;paint-order:stroke fill markers" />
      <circle
         style="fill:#27ae60;fill-opacity:1;stroke:none;stroke-width:0;stroke-linecap:round;stroke-linejoin:round;stroke-miterlimit:4;stroke-dasharray:none;stroke-dashoffset:0;stroke-opacity:1;paint-order:stroke fill markers"
         id="circle1196"
         cx="276.62985"
         cy="43.048588"
         r="52.916668"
         transform="rotate(90)" />
      <circle
         r="52.916668"
         cy="52.673992"
         cx="209.21086"
         id="circle1190"
         style="fill:#3f51b5;fill-opacity:1;stroke:none;stroke-width:0;stroke-linecap:round;stroke-linejoin:round;stroke-miterlimit:4;stroke-dasharray:none;stroke-dashoffset:0;stroke-opacity:1;paint-order:stroke fill markers"
         transform="rotate(90)" />
      <circle
         style="fill:#8e44ad;fill-opacity:1;stroke:none;stroke-width:0;stroke-linecap:round;stroke-linejoin:round;stroke-miterlimit:4;stroke-dasharray:none;stroke-dashoffset:0;stroke-opacity:1;paint-order:stroke fill markers"
         id="circle1194"
         cx="107.79372"
         cy="-59.2131"
         r="52.916668"
         transform="rotate(90)" />
      <circle
         r="70.555557"
         cy="7.9317985"
         cx="135.94215"
         id="circle1192"
         style="fill:#7f8c8d;fill-opacity:1;stroke:none;stroke-width:0;stroke-linecap:round;stroke-linejoin:round;stroke-miterlimit:4;stroke-dasharray:none;stroke-dashoffset:0;stroke-opacity:1;paint-order:stroke fill markers"
         transform="rotate(90)" />
      <g
         aria-label="NPUHelper"
         style="font-style:normal;font-weight:normal;font-size:3.52777791px;line-height:1.25;font-family:sans-serif;letter-spacing:0px;word-spacing:0px;writing-mode:lr-tb;display:inline;fill:#7f8c8d;fill-opacity:1;stroke:none;stroke-width:0.26458335;enable-background:new"
         id="text1180-4">
        <path
           d="m 125.63173,321.33389 h -2.70095 l -7.78316,-14.68437 v 14.68437 h -2.0395 V 304.9187 h 3.38446 l 7.09966,13.40556 V 304.9187 h 2.03949 z"
           style="font-size:22.57777977px;fill:#7f8c8d;fill-opacity:1;stroke-width:0.26458335"
           id="path1225" />
        <path
           d="m 140.73503,309.87964 q 0,1.0914 -0.38585,2.02847 -0.37482,0.92604 -1.05833,1.60955 -0.84887,0.84887 -2.00642,1.27882 -1.15756,0.41892 -2.92145,0.41892 h -2.18281 v 6.11849 h -2.18281 V 304.9187 h 4.45382 q 1.47726,0 2.50252,0.25356 1.02526,0.24253 1.81901,0.7717 0.93706,0.62839 1.44418,1.56545 0.51814,0.93707 0.51814,2.37023 z m -2.271,0.0551 q 0,-0.84887 -0.29766,-1.47726 -0.29766,-0.62838 -0.90399,-1.02526 -0.52917,-0.34175 -1.21268,-0.48507 -0.67248,-0.15434 -1.70876,-0.15434 h -2.16077 v 6.55946 h 1.84106 q 1.32292,0 2.14974,-0.23151 0.82682,-0.24253 1.34497,-0.76067 0.51814,-0.52917 0.7276,-1.11346 0.22049,-0.58429 0.22049,-1.31189 z"
           style="font-size:22.57777977px;fill:#7f8c8d;fill-opacity:1;stroke-width:0.26458335"
           id="path1227" />
        <path
           d="m 155.98165,314.74136 q 0,1.78594 -0.39688,3.11988 -0.38585,1.32291 -1.27881,2.20486 -0.84888,0.83784 -1.98438,1.2237 -1.1355,0.38585 -2.64583,0.38585 -1.54341,0 -2.68993,-0.4079 -1.14653,-0.4079 -1.92926,-1.20165 -0.89297,-0.904 -1.28984,-2.18282 -0.38585,-1.27881 -0.38585,-3.14192 v -9.82266 h 2.18281 v 9.9329 q 0,1.33394 0.17639,2.10564 0.18741,0.7717 0.61736,1.40009 0.48507,0.71658 1.31189,1.08038 0.83785,0.3638 2.00643,0.3638 1.1796,0 2.00642,-0.35277 0.82682,-0.36381 1.32292,-1.09141 0.42995,-0.62839 0.60633,-1.43316 0.18742,-0.8158 0.18742,-2.01745 v -9.98802 h 2.18281 z"
           style="font-size:22.57777977px;fill:#7f8c8d;fill-opacity:1;stroke-width:0.26458335"
           id="path1229" />
        <path
           d="m 172.71655,321.33389 h -2.18281 v -8.03672 h -8.19106 v 8.03672 h -2.18282 V 304.9187 h 2.18282 v 6.4382 h 8.19106 v -6.4382 h 2.18281 z"
           style="font-size:22.57777977px;fill:#7f8c8d;fill-opacity:1;stroke-width:0.26458335"
           id="path1231" />
        <path
           d="m 187.27966,315.39179 h -9.07301 q 0,1.13551 0.34176,1.98438 0.34175,0.83784 0.93706,1.37804 0.57327,0.52916 1.35599,0.79375 0.79375,0.26458 1.74184,0.26458 1.25677,0 2.52457,-0.4961 1.27882,-0.50711 1.81901,-0.99218 h 0.11024 v 2.25998 q -1.04731,0.44097 -2.13871,0.73863 -1.09141,0.29765 -2.29306,0.29765 -3.06476,0 -4.78455,-1.65364 -1.71979,-1.66467 -1.71979,-4.7184 0,-3.02066 1.64262,-4.79558 1.65365,-1.77491 4.34358,-1.77491 2.49149,0 3.83646,1.45521 1.35599,1.45521 1.35599,4.13411 z m -2.01745,-1.5875 q -0.011,-1.6316 -0.82682,-2.52456 -0.80478,-0.89297 -2.45842,-0.89297 -1.66467,0 -2.65686,0.98116 -0.98117,0.98116 -1.11346,2.43637 z"
           style="font-size:22.57777977px;fill:#7f8c8d;fill-opacity:1;stroke-width:0.26458335"
           id="path1233" />
        <path
           d="m 192.5162,321.33389 h -2.07257 v -17.15382 h 2.07257 z"
           style="font-size:22.57777977px;fill:#7f8c8d;fill-opacity:1;stroke-width:0.26458335"
           id="path1235" />
        <path
           d="m 207.47618,315.02799 q 0,1.49931 -0.42995,2.74505 -0.42994,1.23472 -1.21267,2.09462 -0.7276,0.8158 -1.71979,1.2678 -0.98116,0.44097 -2.08359,0.44097 -0.95912,0 -1.74185,-0.20946 -0.7717,-0.20947 -1.57647,-0.65044 v 5.15938 h -2.07257 v -16.85617 h 2.07257 v 1.28985 q 0.82682,-0.69454 1.85208,-1.15756 1.03629,-0.47404 2.20486,-0.47404 2.22691,0 3.46164,1.68672 1.24574,1.67569 1.24574,4.66328 z m -2.13871,0.0551 q 0,-2.22691 -0.76068,-3.32934 -0.76068,-1.10243 -2.33715,-1.10243 -0.89297,0 -1.79697,0.38585 -0.90399,0.38585 -1.73081,1.01424 v 6.97838 q 0.88194,0.39688 1.51033,0.54019 0.63941,0.14332 1.44418,0.14332 1.73082,0 2.70096,-1.16858 0.97014,-1.16857 0.97014,-3.46163 z"
           style="font-size:22.57777977px;fill:#7f8c8d;fill-opacity:1;stroke-width:0.26458335"
           id="path1237" />
        <path
           d="m 221.01403,315.39179 h -9.073 q 0,1.13551 0.34175,1.98438 0.34176,0.83784 0.93707,1.37804 0.57326,0.52916 1.35599,0.79375 0.79375,0.26458 1.74184,0.26458 1.25677,0 2.52456,-0.4961 1.27882,-0.50711 1.81901,-0.99218 h 0.11025 v 2.25998 q -1.04731,0.44097 -2.13872,0.73863 -1.0914,0.29765 -2.29305,0.29765 -3.06476,0 -4.78455,-1.65364 -1.71979,-1.66467 -1.71979,-4.7184 0,-3.02066 1.64262,-4.79558 1.65364,-1.77491 4.34357,-1.77491 2.4915,0 3.83646,1.45521 1.35599,1.45521 1.35599,4.13411 z m -2.01745,-1.5875 q -0.011,-1.6316 -0.82682,-2.52456 -0.80477,-0.89297 -2.45842,-0.89297 -1.66467,0 -2.65686,0.98116 -0.98116,0.98116 -1.11345,2.43637 z"
           style="font-size:22.57777977px;fill:#7f8c8d;fill-opacity:1;stroke-width:0.26458335"
           id="path1239" />
        <path
           d="m 231.8399,311.27973 h -0.11024 q -0.46302,-0.11025 -0.904,-0.15435 -0.42994,-0.0551 -1.02526,-0.0551 -0.95911,0 -1.85208,0.42995 -0.89297,0.41893 -1.71979,1.09141 v 8.74227 h -2.07257 v -12.31415 h 2.07257 v 1.81901 q 1.23472,-0.99218 2.17179,-1.40008 0.94809,-0.41893 1.92925,-0.41893 0.54019,0 0.78273,0.0331 0.24253,0.022 0.7276,0.0992 z"
           style="font-size:22.57777977px;fill:#7f8c8d;fill-opacity:1;stroke-width:0.26458335"
           id="path1241" />
      </g>
    </g>
    <g
       inkscape:groupmode="layer"
       id="layer6"
       inkscape:label="cold_color"
       style="display:inline" />
  </g>
</svg>
